<svg width="128" height="128" viewBox="0 0 128 128" xmlns="http://www.w3.org/2000/svg">
  <!-- Background circle -->
  <circle cx="64" cy="64" r="60" fill="#231F20"/>
  
  <!-- Geometric pattern -->
  <path d="M 64 20 L 50 35 L 64 50 L 78 35 Z" fill="#FFFFFF"/>
  <path d="M 35 50 L 20 64 L 35 78 L 50 64 Z" fill="#FFFFFF"/>
  <path d="M 93 50 L 78 64 L 93 78 L 108 64 Z" fill="#FFFFFF"/>
  <path d="M 64 78 L 50 93 L 64 108 L 78 93 Z" fill="#FFFFFF"/>
  
  <!-- Center diamond with K -->
  <path d="M 64 35 L 50 50 L 64 65 L 78 50 Z" fill="#00A0E3"/>
  <text x="64" y="59" font-family="Arial, sans-serif" font-size="24" font-weight="bold" fill="#FFFFFF" text-anchor="middle">K</text>
  
  <!-- Bottom diamond with automation symbol -->
  <path d="M 64 63 L 50 78 L 64 93 L 78 78 Z" fill="#00A0E3"/>
  <circle cx="64" cy="78" r="8" fill="none" stroke="#FFFFFF" stroke-width="2"/>
  <path d="M 64 70 L 64 86 M 56 78 L 72 78" stroke="#FFFFFF" stroke-width="2"/>
</svg>
